<svg xmlns="http://www.w3.org/2000/svg" width="60" height="60" fill="none" viewBox="0 0 60 60">
  <path stroke="#000" stroke-linecap="round" stroke-linejoin="round" stroke-width="5" d="M10 52.5c0-8.816 6.52-16.11 15-17.323m24.681 2.833c-.17.01-.342.015-.514.015-2.562 0-4.898-1.144-6.667-3.025-1.77 1.881-4.105 3.025-6.667 3.025a8.62 8.62 0 0 1-.514-.016A14.013 14.013 0 0 0 35 40.995c0 5.535 3.187 10.186 7.5 11.505 4.313-1.319 7.5-5.97 7.5-11.505 0-1.031-.11-2.032-.319-2.985ZM37.5 17.5c0 5.523-4.477 10-10 10s-10-4.477-10-10 4.477-10 10-10 10 4.477 10 10Z"/>
</svg>
