<svg width="375" height="476" viewBox="0 0 375 476" fill="none" xmlns="http://www.w3.org/2000/svg">
<ellipse opacity="0.2" cx="185.5" cy="-7" rx="222.5" ry="203" fill="#FFC600"/>
<circle opacity="0.2" cx="378" cy="-4" r="171" fill="#FFC600"/>
<g clip-path="url(#clip0_15_199)">
<path d="M99.0365 400.836C98.8501 400.836 98.6714 400.762 98.5397 400.63C98.408 400.498 98.3339 400.32 98.3339 400.133V394.647C98.3339 391.617 97.1298 388.711 94.9863 386.568C92.8428 384.426 89.9357 383.222 86.9043 383.222C83.873 383.222 80.9658 384.426 78.8224 386.568C76.6789 388.711 75.4747 391.617 75.4747 394.647V400.133C75.4747 400.32 75.4007 400.498 75.2688 400.63C75.137 400.762 74.9582 400.836 74.7718 400.836C74.5854 400.836 74.4066 400.762 74.2747 400.63C74.1429 400.498 74.0688 400.32 74.0688 400.133V394.647C74.0592 392.956 74.3841 391.28 75.0248 389.714C75.6655 388.149 76.6094 386.726 77.8022 385.527C78.995 384.328 80.4133 383.377 81.9753 382.727C83.5373 382.078 85.2124 381.744 86.9041 381.744C88.5959 381.744 90.2709 382.078 91.833 382.727C93.395 383.377 94.8132 384.328 96.006 385.527C97.1989 386.726 98.1428 388.149 98.7835 389.714C99.4242 391.28 99.7491 392.956 99.7394 394.647V400.133C99.7394 400.32 99.6654 400.498 99.5335 400.63C99.4017 400.762 99.2229 400.836 99.0365 400.836Z" fill="#494945"/>
<path d="M115.685 395.392H100.895V475.18H115.685V395.392Z" fill="#0CBC8B"/>
<path opacity="0.21" d="M115.685 395.392H100.895V475.18H115.685V395.392Z" fill="#0A0A0A"/>
<path d="M100.895 395.392H43.3302V475.18H100.895V395.392Z" fill="#0CBC8B"/>
<path d="M84.2454 400.836C84.0591 400.836 83.8804 400.762 83.7486 400.63C83.6169 400.498 83.5429 400.32 83.5429 400.133V394.647C83.552 393.141 83.2631 391.647 82.6928 390.253C82.1225 388.859 81.282 387.592 80.2197 386.523C79.1575 385.455 77.8944 384.607 76.5031 384.029C75.1119 383.45 73.6199 383.153 72.1131 383.153C70.6063 383.153 69.1143 383.45 67.723 384.029C66.3318 384.607 65.0687 385.455 64.0064 386.523C62.9442 387.592 62.1037 388.859 61.5334 390.253C60.9631 391.647 60.6742 393.141 60.6833 394.647V400.133C60.6856 400.227 60.6691 400.32 60.6348 400.407C60.6005 400.495 60.5491 400.574 60.4836 400.641C60.4181 400.708 60.3399 400.762 60.2535 400.798C60.1671 400.834 60.0743 400.853 59.9805 400.853C59.8868 400.853 59.794 400.834 59.7076 400.798C59.6212 400.762 59.5429 400.708 59.4775 400.641C59.412 400.574 59.3606 400.495 59.3263 400.407C59.292 400.32 59.2755 400.227 59.2778 400.133V394.647C59.2681 392.956 59.593 391.28 60.2337 389.714C60.8744 388.149 61.8183 386.726 63.0112 385.527C64.204 384.328 65.6222 383.377 67.1842 382.727C68.7463 382.078 70.4213 381.744 72.1131 381.744C73.8048 381.744 75.4799 382.078 77.0419 382.727C78.604 383.377 80.0222 384.328 81.215 385.527C82.4078 386.726 83.3517 388.149 83.9924 389.714C84.6332 391.28 84.958 392.956 84.9484 394.647V400.133C84.9484 400.32 84.8743 400.498 84.7425 400.63C84.6107 400.762 84.4319 400.836 84.2454 400.836Z" fill="#494945"/>
<path opacity="0.11" d="M100.895 395.392L108.29 403.353L115.684 395.392H100.895Z" fill="#0A0A0A"/>
<path opacity="0.11" d="M100.895 475.18L108.29 467.219L115.684 475.18H100.895Z" fill="#0A0A0A"/>
<path d="M262.629 111H140.138C130.005 111 121.791 119.211 121.791 129.339V417.159C121.791 427.287 130.005 435.498 140.138 435.498H262.629C272.762 435.498 280.976 427.287 280.976 417.159V129.339C280.976 119.211 272.762 111 262.629 111Z" fill="#292A2E"/>
<path d="M262.571 116.727H140.196C133.238 116.727 127.597 122.365 127.597 129.32V416.751C127.597 423.706 133.238 429.344 140.196 429.344H262.571C269.529 429.344 275.17 423.706 275.17 416.751V129.32C275.17 122.365 269.529 116.727 262.571 116.727Z" fill="white"/>
<path d="M171.16 114.359H231.606V120.611C231.606 122.404 230.893 124.123 229.625 125.391C228.357 126.659 226.637 127.371 224.844 127.372H177.924C176.13 127.372 174.409 126.66 173.141 125.392C171.872 124.124 171.16 122.404 171.16 120.611V114.359Z" fill="#292A2E"/>
<g opacity="0.15">
<path opacity="0.15" d="M261.921 213.243H140.846C139.172 213.241 137.568 212.576 136.384 211.393C135.201 210.21 134.536 208.606 134.534 206.934V143.092C134.536 141.419 135.201 139.816 136.384 138.633C137.568 137.45 139.172 136.785 140.846 136.783H261.921C263.594 136.785 265.199 137.45 266.382 138.633C267.565 139.816 268.231 141.419 268.233 143.092V206.934C268.231 208.606 267.565 210.21 266.382 211.393C265.199 212.576 263.594 213.241 261.921 213.243ZM140.846 137.618C139.394 137.62 138.002 138.197 136.975 139.223C135.949 140.249 135.371 141.641 135.37 143.092V206.934C135.371 208.385 135.949 209.776 136.975 210.803C138.002 211.829 139.394 212.406 140.846 212.408H261.921C263.373 212.406 264.765 211.829 265.792 210.803C266.818 209.777 267.396 208.385 267.397 206.934V143.092C267.396 141.641 266.818 140.249 265.792 139.223C264.765 138.197 263.373 137.619 261.921 137.618H140.846Z" fill="#292A2E"/>
</g>
<g opacity="0.43">
<path opacity="0.43" d="M204.234 154.713C206.4 154.713 208.156 152.957 208.156 150.792C208.156 148.627 206.4 146.871 204.234 146.871C202.068 146.871 200.312 148.627 200.312 150.792C200.312 152.957 202.068 154.713 204.234 154.713Z" fill="#FFC600"/>
<path opacity="0.43" d="M216.764 154.713C218.93 154.713 220.687 152.957 220.687 150.792C220.687 148.627 218.93 146.871 216.764 146.871C214.598 146.871 212.842 148.627 212.842 150.792C212.842 152.957 214.598 154.713 216.764 154.713Z" fill="#FFC600"/>
<path opacity="0.43" d="M229.294 154.713C231.461 154.713 233.217 152.957 233.217 150.792C233.217 148.627 231.461 146.871 229.294 146.871C227.128 146.871 225.372 148.627 225.372 150.792C225.372 152.957 227.128 154.713 229.294 154.713Z" fill="#FFC600"/>
<path opacity="0.43" d="M241.825 154.713C243.991 154.713 245.747 152.957 245.747 150.792C245.747 148.627 243.991 146.871 241.825 146.871C239.658 146.871 237.902 148.627 237.902 150.792C237.902 152.957 239.658 154.713 241.825 154.713Z" fill="#FFC600"/>
<path opacity="0.43" d="M254.355 154.713C256.521 154.713 258.277 152.957 258.277 150.792C258.277 148.627 256.521 146.871 254.355 146.871C252.188 146.871 250.432 148.627 250.432 150.792C250.432 152.957 252.188 154.713 254.355 154.713Z" fill="#FFC600"/>
</g>
<g opacity="0.15">
<path opacity="0.15" d="M258.277 162.921H201.383V163.756H258.277V162.921Z" fill="#292A2E"/>
</g>
<g opacity="0.15">
<path opacity="0.15" d="M258.277 171.271H201.383V172.106H258.277V171.271Z" fill="#292A2E"/>
</g>
<g opacity="0.15">
<path opacity="0.15" d="M231.607 179.621H201.383V180.456H231.607V179.621Z" fill="#292A2E"/>
</g>
<g opacity="0.15">
<path opacity="0.15" d="M258.695 202.397H239.264V196.211H258.695V202.397ZM240.099 201.562H257.859V197.046H240.099V201.562Z" fill="#292A2E"/>
</g>
<path d="M231.481 196.628H212.886V201.979H231.481V196.628Z" fill="#0CBC8B"/>
<path d="M186.507 157.926C185.605 155.618 182.605 154.2 177.088 152.467C176.914 152.412 176.371 152.279 175.823 152.148C175.656 152.109 175.482 152.106 175.314 152.142C175.146 152.177 174.988 152.249 174.851 152.353C174.714 152.457 174.602 152.59 174.523 152.742C174.444 152.894 174.399 153.062 174.393 153.234C174.393 153.234 173.725 156.142 168.815 156.142C163.01 156.142 162.216 153.234 162.216 153.234C162.21 153.062 162.165 152.894 162.086 152.742C162.007 152.59 161.895 152.457 161.758 152.353C161.621 152.249 161.463 152.177 161.295 152.142C161.127 152.106 160.954 152.109 160.786 152.148C160.238 152.279 159.695 152.412 159.521 152.467C154.003 154.2 151.005 155.618 150.102 157.926C146.934 166.025 142.107 191.498 142.107 191.498L149.295 193.383L155.338 172.008C156.201 175.213 156.475 185.006 156.475 185.006H163.361H173.248H179.948C179.948 185.006 180.408 175.213 181.27 172.008L187.314 193.383L194.502 191.498C194.502 191.498 189.675 166.025 186.507 157.926Z" fill="#FFC600"/>
<path opacity="0.48" d="M186.507 157.926C185.605 155.618 182.605 154.2 177.088 152.467C176.914 152.412 176.371 152.279 175.823 152.148C175.656 152.109 175.482 152.106 175.314 152.142C175.146 152.177 174.988 152.249 174.851 152.353C174.714 152.457 174.602 152.59 174.523 152.742C174.444 152.894 174.399 153.062 174.393 153.234C174.393 153.234 173.725 156.142 168.815 156.142C163.01 156.142 162.216 153.234 162.216 153.234C162.21 153.062 162.165 152.894 162.086 152.742C162.007 152.59 161.895 152.457 161.758 152.353C161.621 152.249 161.463 152.177 161.295 152.142C161.127 152.106 160.954 152.109 160.786 152.148C160.238 152.279 159.695 152.412 159.521 152.467C154.003 154.2 151.005 155.618 150.102 157.926C146.934 166.025 142.107 191.498 142.107 191.498L149.295 193.383L155.338 172.008C156.201 175.213 156.475 185.006 156.475 185.006H163.361H173.248H179.948C179.948 185.006 180.408 175.213 181.27 172.008L187.314 193.383L194.502 191.498C194.502 191.498 189.675 166.025 186.507 157.926Z" fill="white"/>
<g opacity="0.15">
<path opacity="0.15" d="M261.921 303.141H140.846C139.172 303.139 137.568 302.474 136.385 301.291C135.201 300.109 134.536 298.505 134.534 296.833V232.99C134.536 231.317 135.201 229.714 136.385 228.531C137.568 227.349 139.172 226.684 140.846 226.682H261.921C263.594 226.684 265.198 227.349 266.382 228.531C267.565 229.714 268.231 231.317 268.233 232.99V296.833C268.231 298.505 267.565 300.109 266.382 301.291C265.199 302.474 263.594 303.139 261.921 303.141ZM140.846 227.517C139.394 227.518 138.002 228.096 136.976 229.122C135.949 230.148 135.372 231.539 135.37 232.99V296.833C135.371 298.284 135.949 299.675 136.975 300.701C138.002 301.727 139.394 302.304 140.846 302.306H261.921C263.373 302.305 264.765 301.728 265.792 300.701C266.818 299.675 267.396 298.284 267.397 296.833V232.99C267.396 231.539 266.818 230.147 265.792 229.121C264.765 228.095 263.373 227.517 261.921 227.516L140.846 227.517Z" fill="#292A2E"/>
</g>
<g opacity="0.43">
<path opacity="0.43" d="M204.234 244.612C206.4 244.612 208.156 242.856 208.156 240.691C208.156 238.526 206.4 236.77 204.234 236.77C202.068 236.77 200.312 238.526 200.312 240.691C200.312 242.856 202.068 244.612 204.234 244.612Z" fill="#FFC600"/>
<path opacity="0.43" d="M216.764 244.612C218.93 244.612 220.687 242.856 220.687 240.691C220.687 238.526 218.93 236.77 216.764 236.77C214.598 236.77 212.842 238.526 212.842 240.691C212.842 242.856 214.598 244.612 216.764 244.612Z" fill="#FFC600"/>
<path opacity="0.43" d="M229.294 244.612C231.461 244.612 233.217 242.856 233.217 240.691C233.217 238.526 231.461 236.77 229.294 236.77C227.128 236.77 225.372 238.526 225.372 240.691C225.372 242.856 227.128 244.612 229.294 244.612Z" fill="#FFC600"/>
<path opacity="0.43" d="M241.825 244.612C243.991 244.612 245.747 242.856 245.747 240.691C245.747 238.526 243.991 236.77 241.825 236.77C239.658 236.77 237.902 238.526 237.902 240.691C237.902 242.856 239.658 244.612 241.825 244.612Z" fill="#FFC600"/>
<path opacity="0.43" d="M254.355 244.612C256.521 244.612 258.277 242.856 258.277 240.691C258.277 238.526 256.521 236.77 254.355 236.77C252.188 236.77 250.432 238.526 250.432 240.691C250.432 242.856 252.188 244.612 254.355 244.612Z" fill="#FFC600"/>
</g>
<g opacity="0.15">
<path opacity="0.15" d="M258.277 252.82H201.383V253.655H258.277V252.82Z" fill="#292A2E"/>
</g>
<g opacity="0.15">
<path opacity="0.15" d="M258.277 261.169H201.383V262.004H258.277V261.169Z" fill="#292A2E"/>
</g>
<g opacity="0.15">
<path opacity="0.15" d="M231.607 269.519H201.383V270.354H231.607V269.519Z" fill="#292A2E"/>
</g>
<g opacity="0.15">
<path opacity="0.15" d="M258.695 292.295H239.264V286.11H258.695V292.295ZM240.099 291.46H257.859V286.945H240.099V291.46Z" fill="#292A2E"/>
</g>
<path d="M231.481 286.527H212.886V291.878H231.481V286.527Z" fill="#0CBC8B"/>
<path opacity="0.48" d="M186.179 251.371C184.824 249.695 181.838 248.626 178.35 247.779C176.932 247.435 175.972 247.306 175.972 247.306C174.85 250.149 171.38 252.207 168.322 252.208H168.11C165.051 252.208 161.761 250.149 160.638 247.306C160.638 247.306 159.677 247.435 158.257 247.779C154.769 248.626 151.783 249.695 150.429 251.371C148.346 253.946 145.432 263.637 145.432 263.637L153.882 267.157C153.947 267.332 154.011 267.508 154.074 267.685C154.119 267.811 154.163 267.937 154.207 268.063C154.203 268.05 154.199 268.038 154.194 268.025C154.205 268.055 154.215 268.085 154.225 268.114C155.671 272.384 156.675 276.791 157.219 281.265C157.255 281.254 179.35 281.254 179.385 281.265C179.93 276.791 180.933 272.384 182.38 268.114C182.39 268.085 182.4 268.055 182.411 268.025C182.45 267.912 182.49 267.798 182.531 267.685C182.594 267.509 182.658 267.333 182.723 267.157L191.173 263.637C191.173 263.637 188.261 253.948 186.179 251.371Z" fill="white"/>
<path d="M186.179 251.371C184.824 249.695 181.838 248.626 178.35 247.779C176.932 247.435 175.972 247.306 175.972 247.306C174.85 250.149 171.38 252.207 168.322 252.208H168.11C165.051 252.208 161.761 250.149 160.638 247.306C160.638 247.306 159.677 247.435 158.257 247.779C154.769 248.626 151.783 249.695 150.429 251.371C148.346 253.946 145.432 263.637 145.432 263.637L153.882 267.157C153.947 267.332 154.011 267.508 154.074 267.685C154.119 267.811 154.163 267.937 154.207 268.063C154.203 268.05 154.199 268.038 154.194 268.025C154.205 268.055 154.215 268.085 154.225 268.114C155.671 272.384 156.675 276.791 157.219 281.265C157.255 281.254 179.35 281.254 179.385 281.265C179.93 276.791 180.933 272.384 182.38 268.114C182.39 268.085 182.4 268.055 182.411 268.025C182.45 267.912 182.49 267.798 182.531 267.685C182.594 267.509 182.658 267.333 182.723 267.157L191.173 263.637C191.173 263.637 188.261 253.948 186.179 251.371Z" fill="#FFC600"/>
<path opacity="0.48" d="M186.179 251.371C184.824 249.695 181.838 248.626 178.35 247.779C176.932 247.435 175.972 247.306 175.972 247.306C174.85 250.149 171.38 252.207 168.322 252.208H168.11C165.051 252.208 161.761 250.149 160.638 247.306C160.638 247.306 159.677 247.435 158.257 247.779C154.769 248.626 151.783 249.695 150.429 251.371C148.346 253.946 145.432 263.637 145.432 263.637L153.882 267.157C153.947 267.332 154.011 267.508 154.074 267.685C154.119 267.811 154.163 267.937 154.207 268.063C154.203 268.05 154.199 268.038 154.194 268.025C154.205 268.055 154.215 268.085 154.225 268.114C155.671 272.384 156.675 276.791 157.219 281.265C157.255 281.254 179.35 281.254 179.385 281.265C179.93 276.791 180.933 272.384 182.38 268.114C182.39 268.085 182.4 268.055 182.411 268.025C182.45 267.912 182.49 267.798 182.531 267.685C182.594 267.509 182.658 267.333 182.723 267.157L191.173 263.637C191.173 263.637 188.261 253.948 186.179 251.371Z" fill="white"/>
<g opacity="0.15">
<path opacity="0.15" d="M261.921 391.787H140.846C139.172 391.785 137.568 391.12 136.384 389.937C135.201 388.754 134.536 387.151 134.534 385.478V321.636C134.536 319.963 135.201 318.36 136.385 317.177C137.568 315.994 139.172 315.329 140.846 315.327H261.921C263.594 315.329 265.199 315.994 266.382 317.177C267.565 318.36 268.231 319.963 268.233 321.636V385.478C268.231 387.151 267.565 388.754 266.382 389.937C265.199 391.12 263.594 391.785 261.921 391.787ZM140.846 316.162C139.394 316.164 138.002 316.741 136.975 317.767C135.948 318.793 135.371 320.185 135.369 321.636V385.478C135.371 386.929 135.948 388.321 136.975 389.347C138.001 390.373 139.394 390.951 140.846 390.952H261.921C263.373 390.951 264.765 390.373 265.792 389.347C266.818 388.321 267.396 386.929 267.397 385.478V321.636C267.396 320.185 266.818 318.793 265.791 317.767C264.765 316.741 263.373 316.164 261.921 316.162H140.846Z" fill="#292A2E"/>
</g>
<g opacity="0.43">
<path opacity="0.43" d="M204.234 333.257C206.4 333.257 208.156 331.501 208.156 329.336C208.156 327.171 206.4 325.416 204.234 325.416C202.068 325.416 200.312 327.171 200.312 329.336C200.312 331.501 202.068 333.257 204.234 333.257Z" fill="#FFC600"/>
<path opacity="0.43" d="M216.764 333.257C218.93 333.257 220.687 331.501 220.687 329.336C220.687 327.171 218.93 325.416 216.764 325.416C214.598 325.416 212.842 327.171 212.842 329.336C212.842 331.501 214.598 333.257 216.764 333.257Z" fill="#FFC600"/>
<path opacity="0.43" d="M229.294 333.257C231.461 333.257 233.217 331.501 233.217 329.336C233.217 327.171 231.461 325.416 229.294 325.416C227.128 325.416 225.372 327.171 225.372 329.336C225.372 331.501 227.128 333.257 229.294 333.257Z" fill="#FFC600"/>
<path opacity="0.43" d="M241.825 333.257C243.991 333.257 245.747 331.501 245.747 329.336C245.747 327.171 243.991 325.416 241.825 325.416C239.658 325.416 237.902 327.171 237.902 329.336C237.902 331.501 239.658 333.257 241.825 333.257Z" fill="#FFC600"/>
<path opacity="0.43" d="M254.355 333.257C256.521 333.257 258.277 331.501 258.277 329.336C258.277 327.171 256.521 325.416 254.355 325.416C252.188 325.416 250.432 327.171 250.432 329.336C250.432 331.501 252.188 333.257 254.355 333.257Z" fill="#FFC600"/>
</g>
<g opacity="0.15">
<path opacity="0.15" d="M258.277 341.465H201.383V342.3H258.277V341.465Z" fill="#292A2E"/>
</g>
<g opacity="0.15">
<path opacity="0.15" d="M258.277 349.815H201.383V350.65H258.277V349.815Z" fill="#292A2E"/>
</g>
<g opacity="0.15">
<path opacity="0.15" d="M231.607 358.165H201.383V359H231.607V358.165Z" fill="#292A2E"/>
</g>
<g opacity="0.15">
<path opacity="0.15" d="M258.695 380.941H239.264V374.755H258.695V380.941ZM240.099 380.106H257.859V375.59H240.099V380.106Z" fill="#292A2E"/>
</g>
<path d="M231.481 375.173H212.886V380.523H231.481V375.173Z" fill="#0CBC8B"/>
<path opacity="0.48" d="M179.949 375.586C180.173 375.585 180.393 375.534 180.594 375.435C180.795 375.337 180.971 375.194 181.109 375.018C181.247 374.841 181.342 374.636 181.389 374.417C181.435 374.198 181.432 373.972 181.378 373.755C179.877 367.52 179.763 355.783 181.058 350.739L182.49 345.156L182.488 345.13C182.513 344.939 182.494 344.745 182.433 344.562C182.373 344.379 182.271 344.212 182.137 344.074C176.72 338.518 177.434 332.811 177.434 332.811H175.099C175.25 334.156 175.162 335.517 174.839 336.831C174.254 339.137 172.698 341.697 168.754 342.312C167.501 342.499 166.226 342.499 164.973 342.312C161.029 341.697 159.473 339.137 158.888 336.831C158.565 335.517 158.476 334.156 158.628 332.811H156.294C156.294 332.811 157.007 338.517 151.59 344.074C151.456 344.212 151.354 344.379 151.293 344.562C151.233 344.744 151.214 344.939 151.239 345.13L151.219 345.156L152.652 350.738C153.947 355.783 153.832 367.521 152.332 373.754C152.278 373.971 152.275 374.198 152.321 374.417C152.368 374.636 152.463 374.841 152.601 375.017C152.738 375.194 152.914 375.336 153.115 375.435C153.316 375.533 153.537 375.585 153.761 375.585L179.949 375.586Z" fill="white"/>
<path d="M179.949 375.586C180.173 375.585 180.393 375.534 180.594 375.435C180.795 375.337 180.971 375.194 181.109 375.018C181.247 374.841 181.342 374.636 181.389 374.417C181.435 374.198 181.432 373.972 181.378 373.755C179.877 367.52 179.763 355.783 181.058 350.739L182.49 345.156L182.488 345.13C182.513 344.939 182.494 344.745 182.433 344.562C182.373 344.379 182.271 344.212 182.137 344.074C176.72 338.518 177.434 332.811 177.434 332.811H175.099C175.25 334.156 175.162 335.517 174.839 336.831C174.254 339.137 172.698 341.697 168.754 342.312C167.501 342.499 166.226 342.499 164.973 342.312C161.029 341.697 159.473 339.137 158.888 336.831C158.565 335.517 158.476 334.156 158.628 332.811H156.294C156.294 332.811 157.007 338.517 151.59 344.074C151.456 344.212 151.354 344.379 151.293 344.562C151.233 344.744 151.214 344.939 151.239 345.13L151.219 345.156L152.652 350.738C153.947 355.783 153.832 367.521 152.332 373.754C152.278 373.971 152.275 374.198 152.321 374.417C152.368 374.636 152.463 374.841 152.601 375.017C152.738 375.194 152.914 375.336 153.115 375.435C153.316 375.533 153.537 375.585 153.761 375.585L179.949 375.586Z" fill="#FFC600"/>
<path opacity="0.48" d="M179.949 375.586C180.173 375.585 180.393 375.534 180.594 375.435C180.795 375.337 180.971 375.194 181.109 375.018C181.247 374.841 181.342 374.636 181.389 374.417C181.435 374.198 181.432 373.972 181.378 373.755C179.877 367.52 179.763 355.783 181.058 350.739L182.49 345.156L182.488 345.13C182.513 344.939 182.494 344.745 182.433 344.562C182.373 344.379 182.271 344.212 182.137 344.074C176.72 338.518 177.434 332.811 177.434 332.811H175.099C175.25 334.156 175.162 335.517 174.839 336.831C174.254 339.137 172.698 341.697 168.754 342.312C167.501 342.499 166.226 342.499 164.973 342.312C161.029 341.697 159.473 339.137 158.888 336.831C158.565 335.517 158.476 334.156 158.628 332.811H156.294C156.294 332.811 157.007 338.517 151.59 344.074C151.456 344.212 151.354 344.379 151.293 344.562C151.233 344.744 151.214 344.939 151.239 345.13L151.219 345.156L152.652 350.738C153.947 355.783 153.832 367.521 152.332 373.754C152.278 373.971 152.275 374.198 152.321 374.417C152.368 374.636 152.463 374.841 152.601 375.017C152.738 375.194 152.914 375.336 153.115 375.435C153.316 375.533 153.537 375.585 153.761 375.585L179.949 375.586Z" fill="white"/>
<path d="M315.194 457.53C315.194 457.53 313.308 467.299 304.156 467.845C295.003 468.391 296.988 475.678 296.988 475.678H331.963V458.211L315.194 457.53Z" fill="#FFC600"/>
<path d="M325.982 279.292C325.982 279.292 325.872 276.354 325.895 283.017C325.982 307.87 326.413 336.257 327.467 352.869C329.162 379.573 333.507 463.765 333.507 463.765L310.524 463.572L288.248 278.282L325.982 279.292Z" fill="#262626"/>
<path d="M300.028 308.597C300.028 308.597 299.075 326.633 298.9 330.866C298.492 340.658 298.35 350.797 298.35 362.292L294.727 332.158C294.727 332.158 297.377 322.715 300.028 308.597Z" fill="#0A0A0A"/>
<path d="M274.278 457.53C274.278 457.53 272.392 467.299 263.24 467.845C254.087 468.391 256.072 475.678 256.072 475.678H291.048V458.211L274.278 457.53Z" fill="#FFC600"/>
<path d="M263.15 281.221C263.15 281.221 261.114 366.162 261.413 370.313L269.96 463.121L292.563 463.538L290.36 366.955C290.36 366.955 291.913 340.313 298.354 315.574C301.649 302.877 303.632 289.875 304.272 276.773L263.15 281.221Z" fill="#262626"/>
<path d="M326.232 279.289L326.307 279.294C326.307 279.294 326.252 277.844 326.232 279.289Z" fill="#333333"/>
<path d="M259.915 234.075C260.389 239.641 262.694 274.367 263.15 281.223H325.958C326.313 275.039 327.906 248.001 329.251 235.909C330.536 224.371 333.056 218.594 331.209 215.183C328.19 209.608 319.943 206.386 314.32 205.625C310.885 205.16 305.721 204.827 305.721 204.827C305.721 204.827 305.283 213.668 294.854 214.161C280.66 214.829 281.607 204.827 281.537 204.827C279.238 204.827 265.847 205.908 262.887 208.186C257.71 212.169 258.909 222.278 259.915 234.075Z" fill="#FFC600"/>
<path d="M259.047 227.099C258.993 227.099 258.942 227.079 258.903 227.042C258.864 227.006 258.841 226.956 258.838 226.903L258.331 218.064C258.328 218.009 258.347 217.954 258.384 217.913C258.421 217.872 258.472 217.847 258.528 217.844C258.583 217.841 258.637 217.86 258.678 217.897C258.719 217.933 258.744 217.985 258.748 218.04L259.255 226.878C259.258 226.934 259.239 226.988 259.202 227.029C259.166 227.071 259.114 227.096 259.059 227.099L259.047 227.099Z" fill="#0C0C0C"/>
<path d="M339.535 280.857C341.382 280.857 343.202 280.411 344.84 279.556C346.477 278.702 347.884 277.465 348.94 275.95C349.997 274.435 350.671 272.687 350.907 270.856C351.142 269.025 350.931 267.163 350.292 265.431C349.643 263.672 334.431 223.408 331.536 215.948L310.093 224.631C311.722 228.826 317.62 244.726 322.36 257.534L314.486 256.679L312.008 279.468L338.294 280.79C338.706 280.835 339.12 280.857 339.535 280.857Z" fill="#FFC600"/>
<path d="M274.055 204.063C274.125 204.054 276.052 211.301 291.087 210.173C301.495 209.394 304.034 202.312 304.272 202.312C303.149 202.073 301.327 201.826 300.828 201.56C299.189 200.68 297.996 199.609 297.395 197.309C296.925 195.51 296.685 188.587 296.685 185.114L280.668 188.711C280.892 192.629 282.454 201.713 276.978 203.321C276.067 203.586 275.086 203.831 274.055 204.063Z" fill="#E98862"/>
<path d="M281.223 196.414C287.537 196.912 295.648 194.248 297.189 185.827L298.579 178.229C300.119 169.809 296.944 162.174 289.012 160.724C281.08 159.274 273.903 165.016 272.362 173.436L271.747 176.8C271.156 180.031 269.957 195.526 281.223 196.414Z" fill="#E98862"/>
<path d="M275.368 188.683C276.501 182.991 277.021 179.193 276.961 175.187C275.365 172.39 275.784 169.175 276.147 167.787C275.048 168.485 273.756 168.817 272.456 168.734C272.456 168.734 275.096 158.143 284.069 155.293C285.719 154.651 289.932 153.84 295.526 154.607C300.284 155.259 312.012 158.815 313.688 172.013V172.02C313.743 172.458 314.869 184.618 317.113 190.453C320.131 198.296 324.368 200.733 324.26 209.782C324.122 221.422 302.713 222.972 289.802 222.101C276.891 221.23 269.681 216.986 269.587 208.597C269.484 199.199 273.1 200.071 275.368 188.683Z" fill="#0A0A0A"/>
<path d="M327.298 236.142L325.754 281.216L326.172 281.23L327.715 236.156L327.298 236.142Z" fill="#0C0C0C"/>
<path d="M191.05 184.619L197.799 192.588L197.382 191.22C197.256 190.775 197.303 190.3 197.514 189.889C197.725 189.478 198.085 189.163 198.519 189.007C198.747 188.934 198.986 188.908 199.224 188.931C199.462 188.954 199.692 189.025 199.901 189.14C200.11 189.255 200.294 189.411 200.441 189.599C200.587 189.787 200.694 190.003 200.755 190.234L203.84 201.848C204.23 203.314 204.031 204.874 203.286 206.195C202.541 207.517 201.308 208.495 199.852 208.921C198.161 209.416 196.361 209.395 194.682 208.86C193.003 208.326 191.522 207.302 190.429 205.921L185.489 199.655C185.226 199.334 185.082 198.933 185.081 198.518C185.08 198.104 185.223 197.702 185.485 197.38C185.727 197.094 186.054 196.894 186.419 196.807C186.783 196.721 187.166 196.754 187.51 196.9C187.516 196.88 187.525 196.862 187.537 196.845C187.55 196.829 187.566 196.816 187.584 196.806C187.602 196.796 187.622 196.79 187.642 196.788C187.663 196.785 187.684 196.788 187.703 196.794L186.788 195.637C186.508 195.298 186.36 194.869 186.371 194.43C186.383 193.99 186.553 193.569 186.85 193.245C187.154 192.934 187.564 192.747 187.999 192.72C188.433 192.694 188.863 192.83 189.202 193.102C189.205 193.084 189.211 193.066 189.22 193.049L188.844 192.575C188.598 192.25 188.464 191.855 188.461 191.448C188.458 191.041 188.586 190.644 188.826 190.316C189.119 189.962 189.54 189.737 189.997 189.689C190.454 189.642 190.912 189.775 191.272 190.06L191.297 190.036L188.461 186.689C188.315 186.517 188.206 186.317 188.14 186.102C188.075 185.887 188.053 185.661 188.078 185.437C188.103 185.213 188.173 184.997 188.284 184.802C188.395 184.606 188.544 184.435 188.724 184.299C189.08 184.048 189.518 183.941 189.95 184.001C190.382 184.06 190.775 184.281 191.05 184.619Z" fill="#E98862"/>
<path opacity="0.2" d="M191.203 190.246C191.21 190.264 191.22 190.281 191.233 190.295L194.025 193.515C194.055 193.542 194.094 193.557 194.134 193.557C194.175 193.557 194.214 193.543 194.245 193.517C194.275 193.49 194.295 193.454 194.301 193.414C194.306 193.374 194.297 193.333 194.275 193.299L191.483 190.079C191.457 190.05 191.423 190.031 191.384 190.025C191.346 190.019 191.307 190.026 191.274 190.046C191.24 190.066 191.215 190.097 191.203 190.134C191.19 190.17 191.191 190.21 191.204 190.246H191.203Z" fill="#0C0C0C"/>
<path opacity="0.2" d="M189.206 193.178C189.213 193.195 189.223 193.211 189.235 193.226L191.41 195.772C191.44 195.798 191.478 195.812 191.518 195.812C191.558 195.811 191.596 195.797 191.626 195.771C191.656 195.746 191.676 195.71 191.682 195.671C191.689 195.632 191.681 195.592 191.66 195.558L189.485 193.011C189.459 192.984 189.424 192.966 189.387 192.961C189.349 192.956 189.311 192.964 189.278 192.983C189.246 193.003 189.221 193.032 189.208 193.068C189.194 193.103 189.194 193.142 189.205 193.178L189.206 193.178Z" fill="#0C0C0C"/>
<path opacity="0.2" d="M187.509 197.009C187.516 197.028 187.526 197.045 187.54 197.06L188.595 198.24C188.608 198.26 188.626 198.277 188.646 198.29C188.666 198.303 188.689 198.311 188.713 198.314C188.737 198.318 188.761 198.316 188.784 198.309C188.808 198.301 188.829 198.289 188.847 198.273C188.865 198.257 188.879 198.237 188.889 198.215C188.898 198.193 188.903 198.169 188.902 198.145C188.902 198.121 188.896 198.097 188.886 198.076C188.875 198.054 188.86 198.035 188.841 198.02L187.786 196.84C187.759 196.814 187.725 196.797 187.687 196.793C187.65 196.789 187.613 196.797 187.581 196.816C187.549 196.836 187.525 196.865 187.511 196.9C187.498 196.935 187.497 196.974 187.509 197.009Z" fill="#0C0C0C"/>
<path d="M224.366 259.647C222.242 259.647 220.153 259.097 218.303 258.052C216.454 257.007 214.906 255.502 213.81 253.682L186.499 208.331L207.612 195.628L228.374 230.104L262.887 208.186L277.508 227.782L231.035 257.686C229.046 258.966 226.731 259.646 224.366 259.647Z" fill="#FFC600"/>
<path d="M260.264 239.076C260.218 239.076 260.172 239.061 260.136 239.032C260.099 239.003 260.073 238.962 260.062 238.917C260.051 238.872 260.055 238.824 260.075 238.781C260.094 238.739 260.127 238.704 260.169 238.682L266.132 235.607C266.182 235.581 266.239 235.577 266.292 235.593C266.344 235.61 266.388 235.647 266.414 235.697C266.439 235.746 266.444 235.803 266.427 235.856C266.41 235.909 266.373 235.953 266.324 235.978L260.36 239.054C260.331 239.069 260.298 239.077 260.264 239.076Z" fill="#0C0C0C"/>
<path d="M165.316 475.18H150.526L144.54 414.596H159.33L165.316 475.18Z" fill="#FFC600"/>
<path opacity="0.21" d="M165.316 475.18H150.526L144.54 414.596H159.33L165.316 475.18Z" fill="#0A0A0A"/>
<path d="M150.526 475.18H92.9619L98.9479 414.596H144.54L150.526 475.18Z" fill="#FFC600"/>
<path d="M121.744 439.385C120.059 439.385 118.39 439.054 116.833 438.409C115.275 437.764 113.86 436.819 112.669 435.628C111.477 434.436 110.531 433.022 109.886 431.465C109.241 429.909 108.909 428.24 108.909 426.556V421.068C108.907 420.974 108.924 420.881 108.958 420.794C108.992 420.707 109.044 420.627 109.109 420.56C109.175 420.493 109.253 420.44 109.339 420.404C109.426 420.367 109.518 420.348 109.612 420.348C109.706 420.348 109.799 420.367 109.885 420.404C109.972 420.44 110.05 420.493 110.115 420.56C110.181 420.627 110.232 420.707 110.266 420.794C110.301 420.881 110.317 420.974 110.315 421.068V426.555C110.315 429.585 111.519 432.491 113.663 434.633C115.806 436.776 118.713 437.979 121.744 437.979C124.776 437.979 127.683 436.776 129.826 434.633C131.97 432.491 133.174 429.585 133.174 426.555V421.068C133.174 420.882 133.248 420.703 133.38 420.571C133.512 420.44 133.691 420.366 133.877 420.366C134.063 420.366 134.242 420.44 134.374 420.571C134.506 420.703 134.58 420.882 134.58 421.068V426.555C134.576 429.956 133.223 433.218 130.817 435.623C128.41 438.029 125.148 439.382 121.744 439.385Z" fill="white"/>
<path opacity="0.08" d="M144.54 414.596L152.705 422.557L159.33 414.596H144.54Z" fill="#0A0A0A"/>
<path opacity="0.08" d="M150.526 475.18L157.131 467.219L165.316 475.18H150.526Z" fill="#0A0A0A"/>
<path d="M346.191 476H32.3229C32.2795 476.002 32.2363 475.994 32.1958 475.979C32.1553 475.963 32.1183 475.94 32.0871 475.91C32.0559 475.88 32.0311 475.844 32.0141 475.804C31.9971 475.764 31.9884 475.721 31.9884 475.678C31.9884 475.634 31.9971 475.591 32.0141 475.551C32.0311 475.511 32.0559 475.475 32.0871 475.445C32.1183 475.415 32.1553 475.392 32.1958 475.376C32.2363 475.361 32.2795 475.354 32.3229 475.355H346.191C346.234 475.354 346.277 475.361 346.318 475.376C346.358 475.392 346.395 475.415 346.427 475.445C346.458 475.475 346.483 475.511 346.5 475.551C346.517 475.591 346.525 475.634 346.525 475.678C346.525 475.721 346.517 475.764 346.5 475.804C346.483 475.844 346.458 475.88 346.427 475.91C346.395 475.94 346.358 475.963 346.318 475.979C346.277 475.994 346.234 476.002 346.191 476Z" fill="#3F3F3F"/>
</g>
<defs>
<clipPath id="clip0_15_199">
<rect width="319" height="365" fill="white" transform="translate(32 111)"/>
</clipPath>
</defs>
</svg>
